<svg t="1614998206118" class="icon" viewBox="0 0 1024 1024" version="1.1" xmlns="http://www.w3.org/2000/svg" p-id="1650" width="32" height="32"><path d="M127.67 831.15h-0.07c-17.69-0.04-32-14.38-31.96-32.05l1.23-589.72c0-70.68 57.62-128.23 128.45-128.23h575.86c70.83 0 128.45 57.56 128.45 128.3v381.56c0 17.66-14.34 31.98-32.03 31.98s-32.03-14.32-32.03-31.98V209.45c0-35.48-28.89-64.34-64.39-64.34H225.33c-35.51 0-64.39 28.86-64.39 64.34l-1.23 589.79c-0.05 17.64-14.38 31.91-32.04 31.91z" fill="#cdcdcd" p-id="1651"></path><path d="M446.87 930.82H256.08c-41.13 0-80.14-12.25-109.87-34.5-32.02-23.97-50.39-58.05-50.39-93.5 0-36.25 17.06-69.36 48.03-93.23 29.1-22.42 68.95-34.77 112.22-34.77h255.74c17.67 0 32 14.33 32 32s-14.33 32-32 32H256.08c-54.87 0-96.26 27.51-96.26 64 0 34.69 44.08 64 96.26 64h190.79c17.67 0 32 14.33 32 32s-14.33 32-32 32zM835.85 929.39H655.81l-89.98-156 89.98-156h180.04l89.98 156-89.98 156z m-143.05-64h106.06l53.07-92-53.07-92H692.8l-53.07 92 53.07 92zM736.1 334.94h-448c-17.67 0-32-14.33-32-32s14.33-32 32-32h448c17.67 0 32 14.33 32 32s-14.33 32-32 32zM545.41 462.98h-258c-17.67 0-32-14.33-32-32s14.33-32 32-32h258c17.67 0 32 14.33 32 32 0 17.68-14.32 32-32 32z" fill="#cdcdcd" p-id="1652"></path></svg>